<svg width="578" height="514" viewBox="0 0 578 514" fill="none" xmlns="http://www.w3.org/2000/svg">
<path d="M100.022 242.242V185.974C75.5116 177.524 57.488 187.942 48.9141 213.777C55.1367 226.096 61.5047 233.44 73.0139 237.655C79.8523 240.16 88.5058 241.559 100.022 242.242Z" fill="#ECA213"/>
<path d="M100.022 298.509V242.242C88.5058 241.559 79.8523 240.16 73.0139 237.655C61.5047 233.44 55.1367 226.096 48.9141 213.777C12.6314 233.14 0.447479 264.343 20.586 299.039L100.022 298.509Z" fill="#ECA213"/>
<path d="M100.022 298.509L20.586 299.039C7.33586 325.88 6.89363 347.648 17.1947 362.919C23.6805 372.534 34.4255 379.573 48.9141 383.682C64.5931 365.58 75.4236 358.679 100.022 354.776V298.509Z" fill="#ECA213"/>
<path d="M100.022 411.044V354.776C75.4236 358.679 64.5931 365.58 48.9141 383.682C60.977 415.307 78.7439 426.363 100.022 411.044Z" fill="#ECA213"/>
<path d="M20.586 299.039C0.447479 264.343 12.6314 233.14 48.9141 213.777M20.586 299.039L100.022 298.509M20.586 299.039C7.33586 325.88 6.89363 347.648 17.1947 362.919M100.022 298.509V242.242M100.022 298.509V354.776M100.022 242.242V185.974C75.5116 177.524 57.488 187.942 48.9141 213.777M100.022 242.242C88.5058 241.559 79.8523 240.16 73.0139 237.655M48.9141 213.777C55.1367 226.096 61.5047 233.44 73.0139 237.655M100.022 354.776V411.044C78.7439 426.363 60.977 415.307 48.9141 383.682M100.022 354.776C75.4236 358.679 64.5931 365.58 48.9141 383.682M48.9141 383.682C34.4255 379.573 23.6805 372.534 17.1947 362.919M48.9141 263.226C54.4014 252.217 47.5426 241.644 73.0139 237.655M17.1947 362.919C17.1947 362.919 35.6789 318.037 65.2689 328.96" stroke="#F7D670" stroke-width="18.7817"/>
<path d="M477.663 354.025V410.293C502.174 418.743 520.198 408.325 528.771 382.49C522.549 370.171 516.181 362.827 504.672 358.612C497.833 356.107 489.18 354.708 477.663 354.025Z" fill="#ECA213"/>
<path d="M477.663 297.758V354.025C489.18 354.708 497.833 356.107 504.672 358.612C516.181 362.827 522.549 370.171 528.771 382.49C565.054 363.127 577.238 331.924 557.1 297.228L517.381 297.493L477.663 297.758Z" fill="#ECA213"/>
<path d="M477.663 297.758L517.381 297.493L557.1 297.228C570.35 270.387 570.792 248.619 560.491 233.348C554.005 223.733 543.26 216.694 528.771 212.585C513.092 230.687 502.262 237.588 477.663 241.491V297.758Z" fill="#ECA213"/>
<path d="M477.663 185.223V241.491C502.262 237.588 513.092 230.687 528.771 212.585C516.709 180.96 498.942 169.904 477.663 185.223Z" fill="#ECA213"/>
<path d="M557.1 297.228C577.238 331.924 565.054 363.127 528.771 382.49M557.1 297.228C570.35 270.387 570.792 248.619 560.491 233.348M557.1 297.228L517.381 297.493L477.663 297.758M477.663 297.758V354.025M477.663 297.758V241.491M477.663 354.025V410.293C502.174 418.743 520.198 408.325 528.771 382.49M477.663 354.025C489.18 354.708 497.833 356.107 504.672 358.612M528.771 382.49C522.549 370.171 516.181 362.827 504.672 358.612M477.663 241.491V185.223C498.942 169.904 516.709 180.96 528.771 212.585M477.663 241.491C502.262 237.588 513.092 230.687 528.771 212.585M528.771 212.585C543.26 216.694 554.005 223.733 560.491 233.348M528.771 333.041C523.284 344.05 530.143 354.623 504.672 358.612M560.491 233.348C560.491 233.348 542.007 278.23 512.417 267.307" stroke="#F7D670" stroke-width="18.7817"/>
<path d="M429.772 300.951C429.772 404.679 366.705 499.567 288.909 499.567C211.113 499.567 148.047 404.679 148.047 300.951C148.047 197.223 211.113 100.457 288.909 100.457C366.705 100.457 429.772 197.223 429.772 300.951Z" fill="#ECA213"/>
<path d="M288.909 499.567C366.705 499.567 429.772 404.679 429.772 300.951C429.772 197.223 366.705 100.457 288.909 100.457M288.909 499.567C211.113 499.567 148.047 404.679 148.047 300.951C148.047 197.223 211.113 100.457 288.909 100.457M288.909 499.567C315.937 408.608 322.134 354.06 288.909 300.951C245.906 232.212 257.121 180.765 288.909 100.457" stroke="#F7D670" stroke-width="28.1725"/>
<path d="M482.36 185.913C482.36 81.4562 395.749 15.0001 288.909 15.0001C182.068 15.0001 95.4575 81.4562 95.4575 185.913" stroke="#F7D670" stroke-width="28.1725"/>
<path d="M429.771 183.096V417.867" stroke="#F7D670" stroke-width="28.1725"/>
<path d="M429.771 183.096V417.867" stroke="#F7D670" stroke-width="28.1725"/>
<path d="M429.771 183.096V417.867" stroke="#F7D670" stroke-width="28.1725"/>
<path d="M148.047 183.096V417.867" stroke="#F7D670" stroke-width="28.1725"/>
<path d="M148.047 183.096V417.867" stroke="#F7D670" stroke-width="28.1725"/>
<path d="M148.047 183.096V417.867" stroke="#F7D670" stroke-width="28.1725"/>
</svg>
