<svg width="800" height="803" viewBox="0 0 800 803" fill="none" xmlns="http://www.w3.org/2000/svg">
<path d="M299.763 763.796C299.763 774.433 292.506 787.078 272.694 783.078C366.133 809.952 421.47 808.526 524.261 783.086C504.457 787.078 497.192 774.433 497.192 763.788C497.192 750.49 497.845 707.249 497.845 653.371C497.845 615.453 485.306 591.51 470.776 578.873C559.918 568.89 653.012 534.971 653.012 380.645C653.012 336.743 637.829 300.824 612.073 272.89C616.033 262.914 629.91 221.665 608.114 166.457C608.114 166.457 607.362 166.219 605.829 165.988C597.104 164.672 563.091 163.568 498.506 207.698C466.808 199.053 432.482 194.392 398.808 194.392C365.133 194.429 331.609 198.903 299.102 207.698C223.176 155.812 189.502 166.457 189.502 166.457C167.706 221.665 181.576 262.914 185.535 272.89C160.441 300.824 144.604 336.743 144.604 380.645C144.604 436.463 156.783 476.618 176.517 505.577C193.563 530.593 216.247 547.256 241.589 558.446C268.021 570.119 297.345 575.838 326.18 578.873C314.955 588.849 304.384 606.808 301.086 632.751C292.467 636.721 279.074 641.615 263.817 643.018C256.714 643.671 249.206 643.567 241.589 642.262C224.755 639.377 207.383 630.62 192.643 611.185C189.962 607.651 187.369 603.763 184.882 599.494C184.882 599.494 163.747 560.914 123.469 558.253C123.469 558.253 84.5143 558.253 120.825 582.865C120.825 582.865 147.107 594.772 164.933 641.041C164.953 641.093 164.973 641.145 164.993 641.197C165.019 641.263 165.044 641.33 165.069 641.396C165.069 641.396 170.701 658.911 189.758 673.762C209.297 688.989 242.948 701.415 299.11 689.29C299.11 711.044 299.39 732.226 299.583 746.885C299.685 754.642 299.763 760.573 299.763 763.796Z" fill="#33378B"/>
<path d="M608.114 166.457L796.955 401.935C797.305 282.9 746.108 176.09 664.685 102.573L605.829 165.988C607.362 166.219 608.114 166.457 608.114 166.457Z" fill="#F4C432"/>
<path d="M608.114 166.457C629.91 221.665 616.033 262.914 612.073 272.89C637.829 300.824 653.012 336.743 653.012 380.645C653.012 534.971 559.918 568.89 470.776 578.873C485.306 591.51 497.845 615.453 497.845 653.371C497.845 707.249 497.192 750.49 497.192 763.788C497.192 774.433 504.457 787.078 524.261 783.086C682.727 729.861 796.955 579.535 796.955 401.935L608.114 166.457Z" fill="#ECA213"/>
<path d="M241.589 558.446C216.247 547.256 193.563 530.593 176.517 505.577L222.631 578.873L241.589 558.446Z" fill="#ECA213"/>
<path fill-rule="evenodd" clip-rule="evenodd" d="M398.808 0.163269C178.278 0.163269 0 179.755 0 401.935C0 514.658 46.0165 616.397 120.154 689.29L148.516 658.73L120.825 582.865C84.5143 558.253 123.469 558.253 123.469 558.253C163.747 560.914 184.882 599.494 184.882 599.494C187.369 603.763 189.962 607.651 192.643 611.185L222.631 578.873L176.517 505.577C156.783 476.618 144.604 436.463 144.604 380.645C144.604 336.743 160.441 300.824 185.535 272.89C181.576 262.914 167.706 221.665 189.502 166.457C189.502 166.457 223.176 155.812 299.102 207.698C331.609 198.903 365.133 194.429 398.808 194.392C432.482 194.392 466.808 199.053 498.506 207.698C563.091 163.568 597.104 164.672 605.829 165.988L664.685 102.573C594.13 38.8689 500.881 0.163269 398.808 0.163269Z" fill="#F7D670"/>
<path d="M164.933 641.041C147.107 594.772 120.825 582.865 120.825 582.865L148.516 658.73L164.933 641.041Z" fill="#ECA213"/>
<path d="M272.694 783.078C292.506 787.078 299.763 774.433 299.763 763.796C299.763 760.573 299.685 754.642 299.583 746.885C299.39 732.226 299.11 711.044 299.11 689.29C242.948 701.415 209.297 688.989 189.758 673.762C170.701 658.911 165.069 641.396 165.069 641.396L164.993 641.197L164.933 641.041L148.516 658.73L176.517 735.445C206.017 755.419 238.314 771.534 272.694 783.078Z" fill="#ECA213"/>
<path d="M120.154 689.29C137.481 706.327 156.345 721.788 176.517 735.445L148.516 658.73L120.154 689.29Z" fill="#F4C432"/>
<path fill-rule="evenodd" clip-rule="evenodd" d="M326.18 578.873C314.955 588.849 304.384 606.808 301.086 632.751C292.467 636.721 279.074 641.615 263.817 643.018L222.631 578.873L241.589 558.446C268.021 570.119 297.345 575.838 326.18 578.873Z" fill="#ECA213"/>
<path d="M192.643 611.185C207.383 630.62 224.755 639.377 241.589 642.262C249.206 643.567 256.714 643.671 263.817 643.018L222.631 578.873L192.643 611.185Z" fill="#F4C432"/>
</svg>
