<svg width="164" height="181" viewBox="0 0 164 181" fill="none" xmlns="http://www.w3.org/2000/svg">
<path d="M18.999 114.825H32.9837L25.8594 100.445L29.8173 85.6682L25.8594 78.0162L15.4368 91.2093L18.999 114.825Z" fill="#77878B" stroke="#373E40" stroke-width="2"/>
<path d="M141.827 120.762H132.328L135.494 92.0009H144.993L148.291 100.84L141.827 120.762Z" fill="#373E40" stroke="white" stroke-width="2"/>
<path d="M24.1443 56.5115C44.661 27.3098 57.3866 20.8235 80.6583 13.8977C114.009 21.3802 125.405 32.2099 140.244 56.5115V101.236L121.447 159.945L80.6583 179.076L39.9928 159.945L24.1443 101.236V56.5115Z" fill="#F4F4F4" stroke="black" stroke-width="2"/>
<path d="M57.2944 84.8766L74.263 47.5401L124.923 52.9493L135.866 106.249L162.672 65.7466L135.866 20.89L105.003 13.5019L101.069 1.76001L86.1902 10.2036H63.3195L1.71598 47.5401L17.578 84.8766H57.2944Z" fill="#305252" stroke="black" stroke-width="2"/>
<path d="M81.4767 144.509L52.9053 133.554L81.4767 126.039L112.802 133.554L81.4767 144.509Z" fill="#F4F4F4" stroke="white" stroke-width="0.527725"/>
<path d="M51.3222 130.525L78.1049 117.859H91.9877L112.873 130.525V144.509L98.4376 137.517L84.002 130.525L67.6621 137.517L51.3222 144.509V130.525Z" fill="#305252" stroke="#373E40" stroke-width="2"/>
<path d="M70.5652 122.477V117.728L82.3346 82.7657L88.6116 83.8212L95.0456 114.957L99.7534 123.928H91.7502L95.0456 122.477L91.7502 121.026L87.0424 126.039H85.0023L79.353 121.026L76.5284 123.928L70.5652 122.477Z" fill="#77878B" stroke="#373E40" stroke-width="2"/>
</svg>
