<svg width="800" height="887" viewBox="0 0 800 887" fill="none" xmlns="http://www.w3.org/2000/svg">
<path d="M171.831 528.911H222.021L196.452 477.3L210.657 424.268L196.452 396.805L159.046 444.155L171.831 528.911Z" fill="#F7D670" stroke="#F7D670" stroke-width="7.17794"/>
<path d="M612.657 550.218H578.565L589.929 446.996H624.021L635.858 478.72L612.657 550.218Z" fill="#F7D670" stroke="#F7D670" stroke-width="7.17794"/>
<path d="M190.297 319.625C263.931 214.821 309.603 191.542 393.125 166.686C512.818 193.54 553.718 232.407 606.975 319.625V480.141L539.513 690.847L393.125 759.504L247.177 690.847L190.297 480.141V319.625Z" fill="#33378B" stroke="#F7D670" stroke-width="7.17794"/>
<path d="M309.272 421.427L370.172 287.427L551.989 306.841L591.265 498.134L687.469 352.77L591.265 191.781L480.498 165.265L466.376 123.124L412.979 153.428H330.896L109.803 287.427L166.731 421.427H309.272Z" fill="#ECA213" stroke="#ECA213" stroke-width="7.17794"/>
<path d="M396.062 635.448L293.52 596.129L396.062 569.158L508.487 596.129L396.062 635.448Z" fill="#33378B" stroke="#33378B" stroke-width="1.89399"/>
<path d="M287.838 585.257L383.961 539.801H433.786L508.744 585.257V635.448L456.935 610.353L405.125 585.257L346.482 610.353L287.838 635.448V585.257Z" fill="#ECA213" stroke="#ECA213" stroke-width="7.17794"/>
<path d="M349.652 550.575V533.529L395.627 408.052L420.147 411.84L445.28 523.586L463.67 555.783H432.407L445.28 550.575L432.407 545.366L414.017 563.359H406.048L383.98 545.366L372.946 555.783L349.652 550.575Z" fill="#F7D670" stroke="#F7D670" stroke-width="7.17794"/>
</svg>
