<svg width="800" height="800" viewBox="0 0 800 800" fill="none" xmlns="http://www.w3.org/2000/svg">
<g clip-path="url(#clip0_1_4)">
<path d="M400.001 800.002C620.915 800.002 800.002 620.915 800.002 400.001C800.002 179.086 620.915 0 400.001 0C179.086 0 0 179.086 0 400.001C0 620.915 179.086 800.002 400.001 800.002Z" fill="#F7D670"/>
<path d="M682.83 117.119C839.04 273.343 839.054 526.613 682.83 682.835C526.62 839.045 273.331 839.045 117.121 682.835L682.83 117.119Z" fill="#F4C432"/>
<path d="M780.951 522.059C782.416 517.48 783.75 512.849 785.056 508.207C783.755 512.856 782.386 517.48 780.951 522.059Z" fill="#F7D670"/>
<path d="M785.088 508.12L785.063 508.209L785.088 508.12Z" fill="#ECA213"/>
<path d="M785.088 508.12L568.388 291.42L519.092 340.716L484.82 306.445L456.215 335.05L288.704 167.535L278.314 163.575L214.035 227.854L291.629 305.442L215.672 381.394L289.848 455.57L208.743 536.682L466.692 794.36C615.21 769.412 735.93 662.707 780.958 522.066C782.391 517.481 783.756 512.863 785.063 508.214C785.063 508.184 785.076 508.145 785.088 508.12Z" fill="#ECA213"/>
<path d="M605.261 389.017V537.364H519.267V398.953C519.267 364.188 506.818 340.453 475.698 340.453C451.924 340.453 437.789 356.445 431.562 371.907C429.295 377.441 428.712 385.133 428.712 392.877V537.359H342.7C342.7 537.359 343.849 302.937 342.7 278.657H428.707V315.32C428.548 315.592 428.309 315.894 428.152 316.161H428.707V315.32C440.133 297.723 460.546 272.573 506.226 272.573C562.836 272.578 605.261 309.554 605.261 389.017ZM252.695 153.943C223.275 153.943 204.016 173.252 204.016 198.63C204.016 223.471 222.706 243.354 251.557 243.354H252.138C282.127 243.354 300.791 223.471 300.791 198.63C300.224 173.251 282.129 153.943 252.695 153.943ZM209.121 537.363H295.115V278.662H209.121V537.363Z" fill="#33378B"/>
</g>
<defs>
<clipPath id="clip0_1_4">
<rect width="800" height="800" fill="white"/>
</clipPath>
</defs>
</svg>
