<svg width="800" height="801" viewBox="0 0 800 801" fill="none" xmlns="http://www.w3.org/2000/svg">
<path d="M400 433.774L681.112 255.162V186.83L400 365.719L118.888 186.83V255.162L400 433.774Z" fill="#33378B"/>
<path d="M730.163 662.548C744.128 648.583 751.111 632.233 751.111 613.497V317.595L681.112 186.83V255.162L400 433.774L118.888 255.162L295.52 486.913L445.349 683.497H681.112C699.847 683.497 716.198 676.514 730.163 662.548Z" fill="#ECA213"/>
<path d="M69.8367 662.548C83.8022 676.514 100.153 683.497 118.888 683.497H445.349L295.52 486.913L69.8367 662.548Z" fill="#F4C432"/>
<path fill-rule="evenodd" clip-rule="evenodd" d="M48.8892 613.497C48.8892 632.233 55.8717 648.583 69.8367 662.548L295.52 486.913L118.888 255.162V186.83L400 365.719L681.112 186.83L730.163 137.778C716.198 123.813 699.847 116.83 681.112 116.83H118.888C100.153 116.83 83.8022 123.813 69.8367 137.778C55.8717 151.743 48.8892 168.094 48.8892 186.83V613.497Z" fill="#F7D670"/>
<path d="M751.111 186.83C751.111 168.094 744.128 151.743 730.163 137.778L681.112 186.83L751.111 317.595V186.83Z" fill="#F4C432"/>
</svg>
