<svg width="468" height="427" viewBox="0 0 468 427" fill="none" xmlns="http://www.w3.org/2000/svg">
<g clip-path="url(#clip0_6_10)">
<path d="M215.125 30.858L137.125 0.0579529H135.725L54.9252 15.058C53.5252 15.058 52.8252 16.458 52.8252 17.958C52.8252 18.658 53.5252 20.058 54.2252 20.058C63.5252 24.358 72.8252 28.658 82.1252 33.658C97.1252 41.558 124.325 58.6579 130.025 68.7579C132.125 72.3579 132.925 76.658 132.925 80.958L133.625 339.958C133.625 339.958 134.325 372.858 210.925 425.058C212.325 425.758 216.625 426.458 217.325 425.058C217.325 425.058 217.325 425.058 217.325 424.358V33.058C216.525 32.358 216.525 30.858 215.125 30.858Z" fill="#ECA213"/>
<path d="M250.925 30.858L328.925 0.0579529H330.325L411.125 15.058C412.525 15.058 413.225 16.458 413.225 17.958C413.225 18.658 412.525 20.058 411.825 20.058C402.525 24.358 393.225 28.658 383.925 33.658C368.925 41.558 341.725 58.6579 336.025 68.7579C333.925 73.058 333.125 77.358 333.125 81.658L332.425 340.658C332.425 340.658 331.725 373.558 255.125 425.758C253.725 426.458 249.425 427.158 248.725 425.758C248.725 425.758 248.725 425.758 248.725 425.058V33.058C249.525 32.358 249.525 30.858 250.925 30.858Z" fill="#ECA213"/>
<path d="M34.825 138.358H164.325L181.525 154.058C182.225 154.758 182.225 154.758 182.925 154.758C183.625 154.758 184.325 154.758 184.325 154.058L230.125 103.958C230.825 103.258 230.825 102.558 230.825 101.058C230.125 100.358 229.425 99.658 228.725 99.658H60.625C53.425 98.958 47.025 101.058 41.325 104.658C36.325 108.958 32.025 116.058 32.025 128.958V135.358C32.025 136.158 33.425 137.558 34.825 138.358C34.825 137.558 34.825 137.558 34.825 138.358ZM464.825 101.858H280.225L278.825 102.558L245.225 134.058C244.525 134.758 244.525 136.958 245.225 137.658C245.925 138.358 246.625 138.358 246.625 138.358H394.725L402.625 149.058C403.325 149.758 404.725 150.458 406.225 149.758L466.325 106.858C467.025 106.158 467.725 104.758 466.325 103.258C466.225 101.858 465.525 101.858 464.825 101.858ZM403.225 298.558C398.225 299.258 393.225 299.958 388.225 299.958C344.625 298.558 308.825 264.858 305.225 221.258C304.525 215.558 304.525 209.858 304.525 204.058C304.525 189.758 305.225 174.758 308.125 160.458C308.125 159.758 308.125 159.058 307.425 158.358C306.725 157.658 306.025 157.658 305.325 157.658H239.525C238.825 157.658 237.425 158.358 237.425 159.058C231.725 175.558 228.825 193.358 228.825 211.258C228.825 225.558 230.925 232.758 236.025 249.858C248.925 289.158 296.125 327.158 334.025 327.158C391.225 327.158 405.525 307.158 406.225 300.658C406.125 299.258 405.425 298.558 403.225 298.558ZM125.725 159.758L123.625 159.058H49.225C47.825 159.058 47.125 160.458 47.125 161.158C47.125 161.858 47.125 162.558 47.825 162.558C47.825 162.558 148.725 279.158 150.825 282.058C150.825 282.058 150.825 282.758 151.525 282.758L150.825 283.458H91.425C82.825 283.458 74.225 280.558 67.125 275.558C64.225 273.458 62.125 270.558 59.925 267.658C59.225 266.958 59.225 266.958 58.525 266.958C57.825 266.958 57.125 266.958 56.425 267.658L0.525 319.258C-0.175 319.958 -0.175 322.158 0.525 322.858C1.225 323.558 1.225 323.558 1.925 323.558H210.125C222.325 323.558 230.125 310.658 230.825 298.558C230.825 293.558 229.425 288.558 226.525 284.958C217.325 275.658 125.725 159.758 125.725 159.758Z" fill="#F7D670"/>
</g>
<defs>
<clipPath id="clip0_6_10">
<rect width="467.133" height="426.508" fill="white" transform="translate(0 0.0579529)"/>
</clipPath>
</defs>
</svg>
