<svg width="334" height="168" viewBox="0 0 334 168" fill="none" xmlns="http://www.w3.org/2000/svg">
<path d="M150.333 167.333H83.6666C60.611 167.333 40.9583 159.208 24.7083 142.958C8.45825 126.708 0.333252 107.056 0.333252 84C0.333252 60.9444 8.45825 41.2916 24.7083 25.0416C40.9583 8.79163 60.611 0.666626 83.6666 0.666626H150.333V34H83.6666C69.7777 34 57.9721 38.8611 48.2499 48.5833C38.5277 58.3055 33.6666 70.1111 33.6666 84C33.6666 97.8889 38.5277 109.694 48.2499 119.417C57.9721 129.139 69.7777 134 83.6666 134H150.333V167.333ZM100.333 100.667V67.3333H233.667V100.667H100.333ZM183.667 167.333V134H250.333C264.222 134 276.028 129.139 285.75 119.417C295.472 109.694 300.333 97.8889 300.333 84C300.333 70.1111 295.472 58.3055 285.75 48.5833C276.028 38.8611 264.222 34 250.333 34H183.667V0.666626H250.333C273.389 0.666626 293.042 8.79163 309.292 25.0416C325.542 41.2916 333.667 60.9444 333.667 84C333.667 107.056 325.542 126.708 309.292 142.958C293.042 159.208 273.389 167.333 250.333 167.333H183.667Z" fill="#F7D670"/>
</svg>
